<svg viewBox="0 0 20 20" xmlns="http://www.w3.org/2000/svg"><path fill-rule="evenodd" d="M8.038.859A1 1 0 0 1 9.028 0h2.265a1 1 0 0 1 .99.859l.371 2.598c.703.268 1.35.646 1.924 1.113l2.438-.979a1 1 0 0 1 1.238.428l1.133 1.962a1 1 0 0 1-.249 1.287l-2.065 1.621a7.034 7.034 0 0 1 0 2.222l2.065 1.621a1 1 0 0 1 .249 1.287l-1.133 1.962a1 1 0 0 1-1.239.428l-2.437-.978a6.995 6.995 0 0 1-1.924 1.112l-.371 2.598a1 1 0 0 1-.99.859H9.027a1 1 0 0 1-.99-.859l-.37-2.598a6.995 6.995 0 0 1-1.924-1.113l-2.438.979a1 1 0 0 1-1.239-.428L.934 14.019a1 1 0 0 1 .248-1.287l2.066-1.621a7.06 7.06 0 0 1 0-2.222L1.182 7.268A1 1 0 0 1 .934 5.98l1.132-1.962a1 1 0 0 1 1.239-.428l2.438.979a6.993 6.993 0 0 1 1.923-1.113L8.038.86zm.74 5.66 4.598 3.065a.5.5 0 0 1 0 .832l-4.599 3.066A.5.5 0 0 1 8 13.066V6.934a.5.5 0 0 1 .777-.416z"/></svg>