<svg viewBox="0 0 20 20" xmlns="http://www.w3.org/2000/svg"><path fill-rule="evenodd" d="M4.5 0h11A1.5 1.5 0 0 1 17 1.5v18.223a.2.2 0 0 1-.335.148l-1.662-1.513a.5.5 0 0 0-.673 0l-1.66 1.51a.5.5 0 0 1-.673 0l-1.66-1.51a.5.5 0 0 0-.674 0l-1.66 1.51a.5.5 0 0 1-.673 0l-1.66-1.51a.5.5 0 0 0-.673 0L3.335 19.87A.2.2 0 0 1 3 19.723V1.5A1.5 1.5 0 0 1 4.5 0zm4.207 11.293c.667.667 1.29.706 1.316.707.528 0 .977-.448.977-1 0-.646-.128-.751-1.243-1.03h-.001C8.725 9.712 7 9.28 7 7a2.993 2.993 0 0 1 2-2.815V4a1 1 0 0 1 2 0v.2a4.51 4.51 0 0 1 1.707 1.093 1 1 0 0 1-1.414 1.414c-.667-.667-1.291-.706-1.317-.707C9.448 6 9 6.448 9 7c0 .646.127.751 1.242 1.03h.002C11.274 8.288 13 8.72 13 11a2.995 2.995 0 0 1-2 2.815V14a1 1 0 0 1-2 0v-.2a4.49 4.49 0 0 1-1.707-1.093 1 1 0 1 1 1.414-1.414z"/></svg>