<svg viewBox="0 0 20 20" xmlns="http://www.w3.org/2000/svg"><path d="M4.5 0h11c.828 0 1.5.677 1.5 1.512v18.21a.2.2 0 0 1-.334.149l-1.664-1.515a.497.497 0 0 0-.67 0l-1.664 1.514a.497.497 0 0 1-.67 0l-1.663-1.514a.497.497 0 0 0-.67 0l-1.663 1.514a.497.497 0 0 1-.67 0l-1.664-1.514a.497.497 0 0 0-.67 0l-1.664 1.515a.2.2 0 0 1-.334-.15v-18.209c0-.835.672-1.512 1.5-1.512zm2.543 8.865c-.02.324-.025.65-.014.974h-.268a.778.778 0 0 0-.538.214.716.716 0 0 0-.223.517c0 .194.08.38.223.517a.778.778 0 0 0 .538.214h.433c.418 2.123 1.58 3.699 3.198 3.699h.052c1.178.001 1.838-.227 2.401-1.207a.94.94 0 0 0-.095-1.07.999.999 0 0 0-.3-.244 1.038 1.038 0 0 0-1.115.091.977.977 0 0 0-.254.29.48.48 0 0 1-.11.152c-.072.056-.188.055-.525.055h-.054c-.375 0-.86-.692-1.136-1.766h1.058a.778.778 0 0 0 .538-.214.716.716 0 0 0 .223-.517c0-.194-.08-.38-.223-.517a.778.778 0 0 0-.538-.214h-1.27a7.719 7.719 0 0 1 .02-.974h1.249a.778.778 0 0 0 .538-.214.716.716 0 0 0 .223-.517c0-.194-.08-.38-.223-.517a.778.778 0 0 0-.538-.214h-.973c.283-.903.711-1.47 1.051-1.47.487 0 .569.034.731.325.13.216.344.376.595.445.25.068.52.04.75-.077a.978.978 0 0 0 .484-.554.931.931 0 0 0-.053-.722c-.567-1.025-1.348-1.35-2.507-1.35-1.541 0-2.67 1.43-3.131 3.403h-.5a.778.778 0 0 0-.538.214.716.716 0 0 0-.223.517c0 .194.08.38.223.517a.778.778 0 0 0 .538.214h.282z"/></svg>