<svg viewBox="0 0 20 20" xmlns="http://www.w3.org/2000/svg"><path fill-rule="evenodd" d="M6.328 11.018h3.074c-.426.951-.704 2.033-.825 3.152a6.01 6.01 0 0 0-4.392 4.345c-.204.803.487 1.485 1.315 1.485h9c.828 0 1.52-.682 1.315-1.485a6.005 6.005 0 0 0-5.235-4.487 7.025 7.025 0 0 1 1.896-4.058l3.133-.648c1.897-.4 3.294-1.797 3.593-3.593l.799-4.491a1.7 1.7 0 0 0-.152-.738.784.784 0 0 0-.413-.4c-.246-.1-.515-.132-.733-.06l-4.59 1.597c-1.897.599-3.095 2.295-3.095 4.192v2.794l-.2.22-.598-2.815c-.4-1.896-1.996-3.293-3.992-3.693l-5.09-.798c-.362-.047-.699 0-.899.3-.2.299-.299.698-.2.997l1.698 4.99a4.869 4.869 0 0 0 4.59 3.194Zm8.283-7.485 3.094-.998-.599 2.795a2.564 2.564 0 0 1-1.996 1.996l-2.195.499v-1.996c0-.998.698-1.996 1.696-2.296Zm-10.978 3.693-1.098-3.393 3.393.499c1.198.2 2.196 1.097 2.396 2.195l.399 2.495h-2.395c-1.198 0-2.296-.698-2.695-1.796Z"/></svg>