<svg viewBox="0 0 20 20" xmlns="http://www.w3.org/2000/svg"><path d="M15.284 14.546a2.975 2.975 0 0 1 1.716-.546c1.654 0 3 1.346 3 3s-1.346 3-3 3-3-1.346-3-3a2.94 2.94 0 0 1 .129-.822l-1.575-1.125a3.964 3.964 0 0 1-2.554.947 3.964 3.964 0 0 1-2.554-.947l-1.575 1.125c.076.262.129.535.129.822 0 1.654-1.346 3-3 3s-3-1.346-3-3 1.346-3 3-3c.615 0 1.214.191 1.716.546l1.56-1.114a3.97 3.97 0 0 1-.276-1.432c0-1.858 1.28-3.411 3-3.858v-2.327a2.993 2.993 0 0 1-2-2.815c0-1.654 1.346-3 3-3s3 1.346 3 3a2.996 2.996 0 0 1-2 2.816v2.326c1.72.447 3 2 3 3.858-.003.49-.096.976-.276 1.432l1.56 1.114zm1.037 3.146a1 1 0 0 0 .679.308 1 1 0 0 0 0-2 1 1 0 0 0-.679 1.692zm-14 0a1 1 0 0 0 .679.308 1 1 0 0 0 0-2 1 1 0 0 0-.679 1.692zm8.679-14.692c0-.551-.449-1-1-1-.551 0-1 .449-1 1 0 .551.449 1 1 1 .551 0 1-.449 1-1z"/></svg>