<svg viewBox="0 0 20 20" xmlns="http://www.w3.org/2000/svg"><path d="M6.948.001c.394 0 .772.159 1.052.439l1.477 1.68-3.638 4.12a3.568 3.568 0 0 0-.872 2.33v9.43h-2.48a1.48 1.48 0 0 1-1.051-.44 1.507 1.507 0 0 1-.436-1.06v-9.88a1.497 1.497 0 0 1 .377-1l3.48-4 1.04-1.18a1.48 1.48 0 0 1 1.052-.439zm7.092 2.439 4.58 5.13c.247.275.383.631.381 1v9.93c0 .399-.159.78-.441 1.062a1.51 1.51 0 0 1-1.065.439h-9.039a1.509 1.509 0 0 1-1.033-.457 1.497 1.497 0 0 1-.423-1.044v-9.88a1.487 1.487 0 0 1 .382-1l3.524-4.001 1.005-1.18a1.51 1.51 0 0 1 2.128 0zm-1.9 5.807a1.51 1.51 0 0 0 1.901-.186 1.497 1.497 0 0 0-.489-2.447 1.512 1.512 0 0 0-1.641.325 1.498 1.498 0 0 0 .228 2.308z"/></svg>