<svg viewBox="0 0 20 20" xmlns="http://www.w3.org/2000/svg"><path d="M12.384 8.92a1.01 1.01 0 0 1-.363.08 1.01 1.01 0 0 1-.553-.17.914.914 0 0 1-.373-.452.93.93 0 0 1-.08-.572.991.991 0 0 1 .271-.522l1.007-1.004a1.01 1.01 0 0 1 1.54.17 1.001 1.001 0 0 1-.12 1.255l-1.007 1.005a1.158 1.158 0 0 1-.322.21zm-4.354-5.163a1 1 0 0 0 1.94.486l-1.94-.486zm2.44-1.514a1 1 0 1 0-1.94-.486l1.94.486zm-.5 2 .5-2-1.94-.486-.5 2 1.94.486zm5.755 5.796a1 1 0 1 0 .55 1.922l-.55-1.922zm2.532 1.355a1 1 0 1 0-.55-1.922l.55 1.922zm-1.982.567 1.982-.567-.55-1.922-1.982.567.55 1.922zm-11.76-4.443-4.333 9.359a2.238 2.238 0 0 0 2.942 2.94l9.367-4.338a.921.921 0 0 0 .465-1.102.918.918 0 0 0-.226-.369l-6.743-6.738a.92.92 0 0 0-.8-.258.92.92 0 0 0-.672.506z"/><path d="M1.801 3.98c.109.022.197.11.219.219a1 1 0 0 0 1.96 0 .283.283 0 0 1 .22-.219 1 1 0 0 0 0-1.96.283.283 0 0 1-.219-.219 1 1 0 0 0-1.96 0 .283.283 0 0 1-.219.219 1 1 0 0 0 0 1.96zm14 0c.109.022.197.11.219.219a1 1 0 0 0 1.96 0 .283.283 0 0 1 .219-.219 1 1 0 0 0 0-1.96.283.283 0 0 1-.219-.219 1 1 0 0 0-1.96 0 .283.283 0 0 1-.219.219 1 1 0 0 0 0 1.96zm0 14c.109.022.197.11.219.219a1 1 0 0 0 1.96 0 .283.283 0 0 1 .219-.219 1 1 0 0 0 0-1.96.283.283 0 0 1-.219-.219 1 1 0 0 0-1.96 0 .283.283 0 0 1-.219.219 1 1 0 0 0 0 1.96z"/></svg>