<svg viewBox="0 0 20 20" xmlns="http://www.w3.org/2000/svg"><path d="M4.977 7c.026.001.649.039 1.316.707a.999.999 0 1 0 1.414-1.414 4.491 4.491 0 0 0-1.707-1.093v-.2a1 1 0 1 0-2 0v.185a2.995 2.995 0 0 0-2 2.815c0 2.281 1.727 2.713 2.758 2.971 1.115.278 1.242.383 1.242 1.029 0 .552-.448 1-.976 1-.026-.001-.65-.04-1.317-.707a.999.999 0 1 0-1.414 1.414 4.506 4.506 0 0 0 1.707 1.093v.2a1 1 0 1 0 2 0v-.185a2.993 2.993 0 0 0 2-2.815c0-2.281-1.726-2.713-2.757-2.971-1.115-.278-1.243-.383-1.243-1.029 0-.551.449-1 .977-1zm12.023 6h-3.585l.292-.293a.999.999 0 1 0-1.414-1.414l-2 1.999a.988.988 0 0 0-.215.326.992.992 0 0 0 0 .764c.05.123.124.234.216.326l1.999 1.999a1 1 0 0 0 1.414-1.414l-.292-.293h3.585a1 1 0 1 0 0-2zm-7-7a1 1 0 0 1 1-1h3.586l-.293-.293a1 1 0 0 1 1.414-1.414l1.999 1.999a.985.985 0 0 1 .217.326.992.992 0 0 1 0 .764.985.985 0 0 1-.217.326l-2 1.999a.997.997 0 0 1-1.413 0 1 1 0 0 1 0-1.414l.293-.293h-3.586a1 1 0 0 1-1-1z"/></svg>