<svg viewBox="0 0 20 20" xmlns="http://www.w3.org/2000/svg"><path fill-rule="evenodd" d="M11.566.66a2.189 2.189 0 0 0-3.132 0l-.962.985a2.189 2.189 0 0 1-1.592.66l-1.377-.017a2.189 2.189 0 0 0-2.215 2.215l.016 1.377a2.189 2.189 0 0 1-.66 1.592l-.984.962a2.189 2.189 0 0 0 0 3.132l.985.962c.428.418.667.994.66 1.592l-.017 1.377a2.189 2.189 0 0 0 2.215 2.215l1.377-.016a2.189 2.189 0 0 1 1.592.66l.962.984c.859.88 2.273.88 3.132 0l.962-.985a2.189 2.189 0 0 1 1.592-.66l1.377.017a2.189 2.189 0 0 0 2.215-2.215l-.016-1.377a2.189 2.189 0 0 1 .66-1.592l.984-.962c.88-.859.88-2.273 0-3.132l-.985-.962a2.189 2.189 0 0 1-.66-1.592l.017-1.377a2.189 2.189 0 0 0-2.215-2.215l-1.377.016a2.189 2.189 0 0 1-1.592-.66l-.962-.984zm-4.566 7.84a1.5 1.5 0 1 0 0-3 1.5 1.5 0 0 0 0 3zm6 6a1.5 1.5 0 1 0 0-3 1.5 1.5 0 0 0 0 3zm.778-8.278a1.1 1.1 0 0 1 0 1.556l-6 6a1.1 1.1 0 1 1-1.556-1.556l6-6a1.1 1.1 0 0 1 1.556 0z"/></svg>