<svg viewBox="0 0 20 20" xmlns="http://www.w3.org/2000/svg"><path fill-rule="evenodd" d="M1 3.5a1.5 1.5 0 0 1 1.5-1.5h15a1.5 1.5 0 0 1 1.5 1.5v2a1.5 1.5 0 0 1-1.5 1.5h-15a1.5 1.5 0 0 1-1.5-1.5v-2zm3.5 1a1 1 0 1 1-2 0 1 1 0 0 1 2 0zm-3.5 5a1.5 1.5 0 0 1 1.5-1.5h6.073a1.5 1.5 0 0 1 1.342 2.17l-1 2a1.5 1.5 0 0 1-1.342.83h-5.073a1.5 1.5 0 0 1-1.5-1.5v-2zm3.5 1a1 1 0 1 1-2 0 1 1 0 0 1 2 0zm-3.5 5a1.5 1.5 0 0 1 1.5-1.5h5.27a1.5 1.5 0 0 1 1.471 1.206l.4 2a1.5 1.5 0 0 1-1.47 1.794h-5.671a1.5 1.5 0 0 1-1.5-1.5v-2zm3.5 1a1 1 0 1 1-2 0 1 1 0 0 1 2 0zm7.659-3.441-.682-.429a.987.987 0 0 1-.452-.611.946.946 0 0 1 .134-.742.983.983 0 0 1 .639-.425 1.023 1.023 0 0 1 .758.15l.682.427c.369-.31.8-.54 1.267-.676v-.783c0-.258.104-.504.291-.686a1.01 1.01 0 0 1 .704-.284c.264 0 .517.102.704.284a.957.957 0 0 1 .291.686v.783c.472.138.903.37 1.267.676l.682-.429a1.02 1.02 0 0 1 .735-.107c.25.058.467.208.606.419.14.21.19.465.141.71a.97.97 0 0 1-.403.608l-.682.429a3.296 3.296 0 0 1 0 1.882l.682.43a.987.987 0 0 1 .452.611.946.946 0 0 1-.134.742.982.982 0 0 1-.639.425 1.02 1.02 0 0 1-.758-.15l-.682-.428c-.369.31-.8.54-1.267.676v.783a.957.957 0 0 1-.291.686 1.01 1.01 0 0 1-.704.284 1.01 1.01 0 0 1-.704-.284.957.957 0 0 1-.291-.686v-.783a3.503 3.503 0 0 1-1.267-.676l-.682.429a1.02 1.02 0 0 1-.75.132.999.999 0 0 1-.627-.421.949.949 0 0 1-.135-.73.97.97 0 0 1 .434-.61l.68-.43a3.296 3.296 0 0 1 0-1.882zm3.341-.507c-.82 0-1.487.65-1.487 1.449s.667 1.448 1.487 1.448c.82 0 1.487-.65 1.487-1.448 0-.8-.667-1.45-1.487-1.45z"/></svg>