<svg viewBox="0 0 20 20" xmlns="http://www.w3.org/2000/svg"><path d="M17.71.29c-.19-.18-.44-.29-.71-.29h-14c-.27 0-.52.11-.71.29-.18.19-.29.44-.29.71v10c0 .27.11.52.29.71.19.18.44.29.71.29h14c.27 0 .52-.11.71-.29.18-.19.29-.44.29-.71v-10c0-.27-.11-.52-.29-.71zm-1.71 6.71-2.41-1.832a.992.992 0 0 0-1.15.03l-3.44 2.802-2.52-1.832c-.3-.2-.68-.22-1-.06l-1.48.892v-5h12v5zm-7 9c.27 0 .52-.11.71-.29.18-.19.29-.44.29-.71 0-.27-.11-.52-.29-.71-.19-.18-.44-.29-.71-.29-1.65 0-3 1.35-3 3s1.35 3 3 3c.27 0 .52-.11.71-.29.18-.19.29-.44.29-.71 0-.27-.11-.52-.29-.71-.19-.18-.44-.29-.71-.29a.982.982 0 0 1-.68-.31.976.976 0 0 1-.28-.69c0-.26.1-.51.28-.69.18-.19.42-.3.68-.31zm6-2c-1.65 0-3 1.35-3 3s1.35 3 3 3 3-1.35 3-3-1.35-3-3-3zm.68 3.69c-.18.19-.42.3-.68.31a.982.982 0 0 1-.68-.31.976.976 0 0 1-.28-.69c0-.26.1-.51.28-.69.18-.19.42-.3.68-.31.26.01.5.12.68.31.18.18.28.43.28.69 0 .26-.1.51-.28.69zm-12.68-3.69c-.27 0-.52.11-.71.29-.18.19-.29.44-.29.71v4c0 .27.11.52.29.71.19.18.44.29.71.29.27 0 .52-.11.71-.29.18-.19.29-.44.29-.71v-4c0-.27-.11-.52-.29-.71-.19-.18-.44-.29-.71-.29z"/></svg>