<svg viewBox="0 0 20 20" xmlns="http://www.w3.org/2000/svg"><path d="M18 14v-8h-2v-2h2.5c.8 0 1.5.7 1.5 1.5v9c0 .8-.7 1.5-1.5 1.5h-2.5v-2h2Z"/><path d="M17.7 18.3c-.2-.2-.4-.3-.7-.3h-2c-.3 0-.5-.1-.7-.3-.2-.2-.3-.4-.3-.7v-14c0-.3.1-.5.3-.7.2-.2.4-.3.7-.3h2c.3 0 .5-.1.7-.3.2-.2.3-.4.3-.7 0-.3-.1-.5-.3-.7-.2-.2-.4-.3-.7-.3h-2c-.7 0-1.5.3-2 .8-.5-.5-1.2-.8-2-.8h-2c-.3 0-.5.1-.7.3-.2.2-.3.4-.3.7 0 .3.1.5.3.7.2.2.4.3.7.3h2c.3 0 .5.1.7.3.2.2.3.4.3.7v14c0 .3-.1.5-.3.7-.2.2-.4.3-.7.3h-2c-.3 0-.5.1-.7.3-.2.2-.3.4-.3.7 0 .3.1.5.3.7.2.2.4.3.7.3h2c.7 0 1.5-.3 2-.8.5.5 1.2.8 2 .8h2c.3 0 .5-.1.7-.3.2-.2.3-.4.3-.7 0-.3-.1-.5-.3-.7Z"/><path d="M2 14v-8h8v-2h-8.5c-.8 0-1.5.7-1.5 1.5v9c0 .8.7 1.5 1.5 1.5h8.5v-2h-8Z"/></svg>