<svg viewBox="0 0 20 20" xmlns="http://www.w3.org/2000/svg"><path d="M10 12a2 2 0 0 0 2-2c0-.178-.03-.348-.074-.512l5.781-5.781a.999.999 0 1 0-1.414-1.414l-2.61 2.61a7.757 7.757 0 0 0-3.683-.903c-5.612 0-7.837 5.399-7.929 5.628a1.017 1.017 0 0 0 0 .744c.054.133.835 2.011 2.582 3.561l-2.36 2.36a.999.999 0 1 0 1.414 1.414l5.781-5.781c.164.043.334.074.512.074zm-4-2a4 4 0 0 1 4-4c.742 0 1.432.208 2.025.561l-1.513 1.513a2.004 2.004 0 0 0-.512-.074 2 2 0 0 0-2 2c0 .178.031.347.074.511l-1.513 1.514a3.959 3.959 0 0 1-.561-2.025zm10.145-3.144-2.252 2.252c.064.288.106.585.106.893a4 4 0 0 1-4 4 3.97 3.97 0 0 1-.89-.108l-1.682 1.68a7.903 7.903 0 0 0 2.573.427c5.613 0 7.837-5.399 7.928-5.629a1.004 1.004 0 0 0 0-.742c-.044-.111-.596-1.437-1.784-2.773z"/></svg>