<svg viewBox="0 0 20 20" xmlns="http://www.w3.org/2000/svg"><path fill-rule="evenodd" d="M5.508 2.466 4.356 5H2.5A1.5 1.5 0 0 0 1 6.5v1.882l.503.251a19 19 0 0 0 16.994 0L19 8.382V6.5A1.5 1.5 0 0 0 17.5 5h-1.856l-1.152-2.534A2.5 2.5 0 0 0 12.216 1H7.784a2.5 2.5 0 0 0-2.276 1.466zM7.784 3a.5.5 0 0 0-.455.293L6.553 5h6.894l-.776-1.707A.5.5 0 0 0 12.216 3H7.784z"/><path d="M19 10.613a20.986 20.986 0 0 1-8 2.003V14a1 1 0 0 1-2 0v-1.384a20.995 20.995 0 0 1-8-2.003V17.5A1.5 1.5 0 0 0 2.5 19h15a1.5 1.5 0 0 0 1.5-1.5v-6.887z"/></svg>