<svg viewBox="0 0 20 20" xmlns="http://www.w3.org/2000/svg"><path d="M12.173 7.56c.113-.346.17-.518.264-.55a.198.198 0 0 1 .126 0c.094.032.15.204.264.55.476 1.446.714 2.17 1.162 2.742.207.264.445.502.71.709.572.448 1.295.686 2.741 1.162.345.113.518.17.55.264a.198.198 0 0 1 0 .126c-.032.094-.204.15-.55.264-1.446.476-2.17.714-2.742 1.162a4.153 4.153 0 0 0-.709.71c-.448.572-.686 1.295-1.162 2.741-.113.345-.17.518-.264.55a.198.198 0 0 1-.126 0c-.094-.032-.15-.204-.264-.55-.476-1.446-.714-2.17-1.162-2.742a4.153 4.153 0 0 0-.71-.709c-.572-.448-1.295-.686-2.741-1.162-.346-.113-.518-.17-.55-.264a.198.198 0 0 1 0-.126c.032-.094.204-.15.55-.264 1.446-.476 2.17-.714 2.742-1.162.264-.207.502-.445.709-.71.448-.572.686-1.295 1.162-2.741Z"/><path d="M5.292 4.356c.072-.22.108-.33.168-.35a.126.126 0 0 1 .08 0c.06.02.096.13.168.35.303.92.454 1.38.74 1.745.131.168.283.32.45.451.365.286.825.437 1.746.74.22.072.33.108.35.168a.126.126 0 0 1 0 .08c-.02.06-.13.096-.35.168-.92.303-1.38.454-1.745.74-.168.131-.32.283-.451.45-.286.365-.437.825-.74 1.746-.072.22-.108.33-.168.35a.126.126 0 0 1-.08 0c-.06-.02-.096-.13-.168-.35-.303-.92-.454-1.38-.74-1.745a2.644 2.644 0 0 0-.45-.451c-.365-.286-.825-.437-1.746-.74-.22-.072-.33-.108-.35-.168a.126.126 0 0 1 0-.08c.02-.06.13-.096.35-.168.92-.303 1.38-.454 1.745-.74.168-.131.32-.283.451-.45.286-.365.437-.825.74-1.746Z"/><path d="M10.881 2.204c.041-.126.062-.189.096-.2a.072.072 0 0 1 .046 0c.034.011.055.074.096.2.173.525.26.788.423.997.075.096.161.182.257.257.209.164.472.25.997.423.126.041.189.062.2.096a.073.073 0 0 1 0 .046c-.011.034-.074.055-.2.096-.525.173-.788.26-.997.423a1.51 1.51 0 0 0-.257.257c-.163.209-.25.472-.423.997-.041.126-.062.189-.096.2a.072.072 0 0 1-.046 0c-.034-.011-.055-.074-.096-.2-.173-.525-.26-.788-.423-.997a1.51 1.51 0 0 0-.257-.257c-.209-.164-.472-.25-.997-.423-.126-.041-.189-.062-.2-.096a.072.072 0 0 1 0-.046c.011-.034.074-.055.2-.096.525-.173.788-.26.997-.423a1.51 1.51 0 0 0 .257-.257c.163-.209.25-.472.423-.997Z"/></svg>