<svg viewBox="0 0 20 20" xmlns="http://www.w3.org/2000/svg"><path d="M12.643 7.61c.124-.376.186-.564.288-.599a.216.216 0 0 1 .138 0c.102.035.164.223.288.6.519 1.577.778 2.366 1.268 2.991.225.288.485.548.773.773.625.49 1.414.75 2.991 1.268.377.124.565.186.6.288a.217.217 0 0 1 0 .138c-.035.102-.223.164-.6.288-1.577.519-2.366.778-2.991 1.268a4.53 4.53 0 0 0-.773.773c-.49.625-.75 1.414-1.268 2.991-.124.377-.186.565-.288.6a.217.217 0 0 1-.138 0c-.102-.035-.164-.223-.288-.6-.519-1.577-.778-2.366-1.268-2.991a4.53 4.53 0 0 0-.773-.773c-.625-.49-1.414-.75-2.991-1.268-.377-.124-.565-.186-.6-.288a.216.216 0 0 1 0-.138c.035-.102.223-.164.6-.288 1.577-.519 2.366-.778 2.991-1.268a4.53 4.53 0 0 0 .773-.773c.49-.625.75-1.414 1.268-2.991Z"/><path d="M4.762 4.407c.083-.251.124-.377.192-.4.03-.01.062-.01.092 0 .068.023.11.149.192.4.346 1.052.519 1.578.845 1.994.15.192.324.365.516.516.416.326.942.5 1.994.845.251.083.377.124.4.192.01.03.01.062 0 .092-.023.068-.149.11-.4.192-1.052.346-1.578.519-1.994.845-.192.15-.365.324-.516.516-.326.416-.5.942-.845 1.994-.083.251-.124.377-.192.4a.144.144 0 0 1-.092 0c-.068-.023-.11-.149-.192-.4-.346-1.052-.519-1.578-.845-1.994a3.022 3.022 0 0 0-.516-.516c-.416-.326-.942-.5-1.994-.845-.251-.083-.377-.124-.4-.192a.144.144 0 0 1 0-.092c.023-.068.149-.11.4-.192 1.052-.346 1.578-.519 1.994-.845.192-.15.365-.324.516-.516.326-.416.5-.942.845-1.994Z"/><path d="M10.351 1.254c.052-.157.078-.235.12-.25a.09.09 0 0 1 .058 0c.042.015.068.093.12.25.216.658.324.986.528 1.247.094.12.202.228.322.322.26.204.59.312 1.247.528.156.052.235.078.25.12a.089.089 0 0 1 0 .058c-.015.042-.094.068-.25.12-.658.216-.987.324-1.247.528-.12.094-.228.202-.322.322-.204.26-.312.59-.528 1.247-.052.156-.078.235-.12.25a.09.09 0 0 1-.058 0c-.042-.015-.068-.094-.12-.25-.216-.658-.324-.986-.528-1.247a1.888 1.888 0 0 0-.322-.322c-.26-.204-.59-.312-1.247-.528-.156-.052-.235-.078-.25-.12a.09.09 0 0 1 0-.058c.015-.042.094-.068.25-.12.658-.216.986-.324 1.247-.528.12-.094.228-.202.322-.322.204-.26.312-.59.528-1.247Z"/></svg>