<svg viewBox="0 0 20 20" xmlns="http://www.w3.org/2000/svg"><path d="m1.791 2.253-.597 3.583a1 1 0 0 0 .986 1.164h.893a1.5 1.5 0 0 0 1.342-.83l.585-1.17.585 1.17a1.5 1.5 0 0 0 1.342.83h1.146a1.5 1.5 0 0 0 1.342-.83l.585-1.17.585 1.17a1.5 1.5 0 0 0 1.342.83h1.146a1.5 1.5 0 0 0 1.342-.83l.585-1.17.585 1.17a1.5 1.5 0 0 0 1.342.83h.893a1 1 0 0 0 .986-1.164l-.597-3.583a1.5 1.5 0 0 0-1.48-1.253h-13.458a1.5 1.5 0 0 0-1.48 1.253zm2.209 16.247a1.5 1.5 0 0 1 1.5-1.5h2.5v-3h4v3h2.5a1.5 1.5 0 0 1 1.5 1.5v.5h-12v-.5z"/><path d="M2 9h2v4h12v-4h2v4.5a1.5 1.5 0 0 1-1.5 1.5h-13a1.5 1.5 0 0 1-1.5-1.5v-4.5z"/></svg>