<svg viewBox="0 0 20 20" xmlns="http://www.w3.org/2000/svg"><path d="M6.108 1.31c.407-.232.891-.31 1.387-.31h5.009c.496 0 .98.078 1.387.31.448.257.73.662.82 1.133.083.426-.004.828-.114 1.134a3.769 3.769 0 0 1-.42.814l-.586 1.11a.926.926 0 0 0-.091.28c.001.007.013.05.095.226l1.802 3.685c.254.472.455.91.546 1.301.093.398.121.99-.326 1.463-.375.395-.89.477-1.174.509a9.996 9.996 0 0 1-1.047.035h-2.396v5a1 1 0 1 1-2 0v-5h-2.396c-.355 0-.732 0-1.047-.035-.284-.032-.798-.114-1.172-.508-.449-.472-.42-1.064-.329-1.463.091-.392.292-.83.547-1.302l1.8-3.68c.046-.104.068-.154.084-.198a.258.258 0 0 0 .01-.037.897.897 0 0 0-.089-.276l-.585-1.11a3.771 3.771 0 0 1-.42-.814c-.11-.307-.197-.708-.115-1.134.09-.471.373-.876.82-1.132Zm1.22 1.696c.042.09.101.192.176.3a.999.999 0 0 1 .062.103l.626 1.187c.01.018.018.035.026.053.196.431.307.846.274 1.279-.03.386-.173.701-.258.887a10.485 10.485 0 0 0-.028.062l-1.816 3.712a8.17 8.17 0 0 0-.21.408c.137.003.288.003.463.003h6.713c.175 0 .326 0 .463-.002a8.298 8.298 0 0 0-.21-.409l-1.816-3.712-.008-.017a4.3 4.3 0 0 1-.012-.027c-.09-.191-.24-.511-.268-.908-.031-.434.082-.848.276-1.276a.966.966 0 0 1 .026-.053l.626-1.187a.996.996 0 0 1 .062-.103c.075-.108.134-.21.176-.3a2.2 2.2 0 0 0-.167-.006h-5.009c-.064 0-.119.002-.167.006Z"/></svg>