<svg viewBox="0 0 20 20" xmlns="http://www.w3.org/2000/svg"><path d="M6.792 3.275c.367-.21.793-.275 1.208-.275h4c.415 0 .841.065 1.209.275.408.234.668.608.752 1.042.075.388-.005.748-.1 1.012-.09.251-.218.485-.352.686l-.459.872c-.025.058-.04.098-.046.123l.048.109 1.425 2.897c.241.396.432.794.498 1.184.079.462-.016.993-.458 1.372-.348.298-.774.37-1.017.398-.261.03-.548.03-.773.03h-1.727v3a1 1 0 1 1-2 0v-3h-1.727c-.225 0-.511 0-.772-.03-.244-.028-.67-.1-1.018-.398-.442-.38-.537-.91-.458-1.372.066-.39.257-.788.499-1.184l1.421-2.892a3.21 3.21 0 0 0 .05-.116 1.03 1.03 0 0 0-.045-.121l-.46-.872a3.21 3.21 0 0 1-.351-.686 1.93 1.93 0 0 1-.1-1.012c.084-.434.344-.808.753-1.042Zm6.204 3.767v-.003Zm-4.78-2.042.019.034.5.95c.01.018.018.035.026.053.164.362.265.729.236 1.12a2.258 2.258 0 0 1-.222.776l-.013.028-.014.03-1.45 2.95a1 1 0 0 1-.032.059h5.468a.95.95 0 0 1-.031-.059l-1.45-2.95-.01-.02-.01-.023c-.072-.153-.206-.439-.232-.794-.028-.392.076-.758.238-1.117a.963.963 0 0 1 .026-.053l.5-.95a.79.79 0 0 1 .02-.034h-3.569Z"/></svg>