<svg viewBox="0 0 20 20" xmlns="http://www.w3.org/2000/svg"><path fill-rule="evenodd" d="m2.606 5.434 3-2.876a2.019 2.019 0 0 1 2.788 0l3 2.876c.387.372.606.883.606 1.416v2.15c-2.838.47-5 3.104-5 6.038v2.962h-3c-1.105 0-2-.884-2-1.974v-9.176c0-.533.219-1.044.606-1.416Zm4.394 1.566a1 1 0 1 0 0-2 1 1 0 0 0 0 2Z"/><path d="M13.793 8.793a1 1 0 0 1 1.414 0l2.5 2.5a1 1 0 0 1 0 1.415l-2.5 2.5a1 1 0 0 1-1.414-1.415l.793-.793h-1.586c-1.105 0-2 .482-2 1.429v2.714c0 .473-.448.857-1 .857s-1-.384-1-.857v-2.714c0-1.894 1.79-3.429 4-3.429h1.586l-.793-.793a1 1 0 0 1 0-1.414Z"/></svg>