<svg viewBox="0 0 20 20" xmlns="http://www.w3.org/2000/svg"><path fill-rule="evenodd" d="M5 0a1 1 0 0 0 0 2h1v1a1 1 0 0 0 .917.997l10.943.911L17.133 10H7a1 1 0 0 0-1 1v3.17A3.001 3.001 0 1 0 9.83 16h3.34A3 3 0 1 0 16 14H8v-2h10a1 1 0 0 0 .99-.859l1-7a1 1 0 0 0-.907-1.138L8 2.08V1a1 1 0 0 0-1-1H5zm11 16a1 1 0 1 0 0 2 1 1 0 0 0 0-2zm-9 0a1 1 0 1 0 0 2 1 1 0 0 0 0-2z"/><path d="M0 3a1 1 0 0 1 1-1h1a1 1 0 0 1 0 2H1a1 1 0 0 1-1-1zm1 3a1 1 0 0 0 0 2h6a1 1 0 0 0 0-2H1zm-1 5a1 1 0 0 1 1-1h2a1 1 0 1 1 0 2H1a1 1 0 0 1-1-1zm1 3a1 1 0 1 0 0 2h1a1 1 0 1 0 0-2H1z"/></svg>