<svg viewBox="0 0 20 20" xmlns="http://www.w3.org/2000/svg"><path d="M1.5 0A1.5 1.5 0 0 0 0 1.5v5A1.5 1.5 0 0 0 1.5 8h5A1.5 1.5 0 0 0 8 6.5v-5A1.5 1.5 0 0 0 6.5 0h-5zm11.793 7.707a1 1 0 1 0 1.414-1.414L13.414 5H17.5a.5.5 0 0 1 .5.5V9a1 1 0 1 0 2 0V5.5A2.5 2.5 0 0 0 17.5 3h-4.086l1.293-1.293A1 1 0 0 0 13.293.293l-3 3a1 1 0 0 0 0 1.414l3 3zm-6.586 4.586a1 1 0 0 0-1.414 1.414L6.586 15H2.5a.5.5 0 0 1-.5-.5V11a1 1 0 1 0-2 0v3.5A2.5 2.5 0 0 0 2.5 17h4.086l-1.293 1.293a1 1 0 1 0 1.414 1.414l3-3a1 1 0 0 0 0-1.414l-3-3zM20 18.5a1.5 1.5 0 0 1-1.5 1.5h-5a1.5 1.5 0 0 1-1.5-1.5v-5a1.5 1.5 0 0 1 1.5-1.5h5a1.5 1.5 0 0 1 1.5 1.5v5z"/></svg>