<svg viewBox="0 0 20 20" xmlns="http://www.w3.org/2000/svg"><path d="M18 5a1 1 0 0 0-.293-.707l-4-4A1.002 1.002 0 0 0 13 0H3.5A1.5 1.5 0 0 0 2 1.5V6a1 1 0 1 0 2 0V2h8.586L16 5.414V18H4v-1a1 1 0 1 0-2 0v1.5A1.5 1.5 0 0 0 3.5 20h13a1.5 1.5 0 0 0 1.5-1.5V5z"/><path d="M9 6a1 1 0 0 0 0 2h3v3a1 1 0 1 0 2 0V7a1 1 0 0 0-1-1H9z"/><path d="m7 13-.768.64a1 1 0 0 0 1.475.067L7 13zm-2.5-3 .768-.64a1 1 0 0 0-1.52-.018L4.5 10zM.247 13.341a1 1 0 0 0 1.506 1.318L.247 13.34zm11.046-6.048-5 5 1.414 1.414 5-5-1.414-1.414zM7.768 12.36l-2.5-3-1.536 1.28 2.5 3 1.536-1.28zm-4.02-3.018-3.5 4 1.505 1.316 3.5-4-1.506-1.316z"/></svg>