<svg viewBox="0 0 20 20" xmlns="http://www.w3.org/2000/svg"><path d="M4 7h9v2H4zm0 4h7v2H4z"/><path d="M16 10a1 1 0 0 1 1 1v4.5a1.5 1.5 0 0 1-1.5 1.5H7.636l-2.818 2.707A1 1 0 0 1 3.111 19v-2H1.5A1.5 1.5 0 0 1 0 15.5v-11A1.5 1.5 0 0 1 1.5 3H9a1 1 0 0 1 0 2H2v10h2.111a1 1 0 0 1 1 1v.697l1.404-1.404A1 1 0 0 1 7.222 15H15v-4a1 1 0 0 1 1-1zm0-5a.999.999 0 0 1-.707-1.707l2-2a1 1 0 1 1 1.414 1.414l-2 2A.996.996 0 0 1 16 5zm3 1a1 1 0 1 1 0 2h-2a1 1 0 1 1 0-2h2zm-6-2a1 1 0 0 1-1-1V1a1 1 0 0 1 2 0v2a1 1 0 0 1-1 1z"/></svg>