<svg viewBox="0 0 20 20" xmlns="http://www.w3.org/2000/svg"><path d="m1.791 2.253-.597 3.583a1 1 0 0 0 .986 1.164h.893a1.5 1.5 0 0 0 1.342-.83l.585-1.17.585 1.17a1.5 1.5 0 0 0 1.342.83h1.146a1.5 1.5 0 0 0 1.342-.83l.585-1.17.585 1.17a1.5 1.5 0 0 0 1.342.83h1.146a1.5 1.5 0 0 0 1.342-.83l.585-1.17.585 1.17a1.5 1.5 0 0 0 1.342.83h.893a1 1 0 0 0 .986-1.164l-.597-3.583a1.5 1.5 0 0 0-1.48-1.253h-13.458a1.5 1.5 0 0 0-1.48 1.253z"/><path d="M18 9h-16v8.5a1.5 1.5 0 0 0 1.5 1.5h3.5v-7h6v7h3.5a1.5 1.5 0 0 0 1.5-1.5v-8.5z"/></svg>